HIERARCHY
ROOT root
{
	OFFSET 0.000000 0.000000 0.000000
	CHANNELS 6 Xposition Yposition Zposition Zrotation Yrotation Xrotation
	JOINT lhip
	{
		OFFSET 0.058581 -0.082280 -0.017664
		CHANNELS 3 Zrotation Yrotation Xrotation
		JOINT lknee
		{
			OFFSET 0.043451 -0.386469 0.008037
			CHANNELS 3 Zrotation Yrotation Xrotation
			JOINT lankle
			{
				OFFSET -0.014790 -0.426874 -0.037428
				CHANNELS 3 Zrotation Yrotation Xrotation
				JOINT ltoe
				{
					OFFSET 0.041054 -0.060286 0.122042
					CHANNELS 3 Zrotation Yrotation Xrotation
					End Site
					{
						OFFSET 0.000000 0.000000 0.000000
					}
				}
			}
		}
	}
	JOINT rhip
	{
		OFFSET -0.060310 -0.090513 -0.013543
		CHANNELS 3 Zrotation Yrotation Xrotation
		JOINT rknee
		{
			OFFSET -0.043257 -0.383688 -0.004843
			CHANNELS 3 Zrotation Yrotation Xrotation
			JOINT rankle
			{
				OFFSET 0.019056 -0.420046 -0.034562
				CHANNELS 3 Zrotation Yrotation Xrotation
				JOINT rtoe
				{
					OFFSET -0.034840 -0.062106 0.130323
					CHANNELS 3 Zrotation Yrotation Xrotation
					End Site
					{
						OFFSET 0.000000 0.000000 0.000000
					}
				}
			}
		}
	}
	JOINT lowerback
	{
		OFFSET 0.004439 0.124404 -0.038385
		CHANNELS 3 Zrotation Yrotation Xrotation
		JOINT upperback
		{
			OFFSET 0.004488 0.137956 0.026820
			CHANNELS 3 Zrotation Yrotation Xrotation
			JOINT chest
			{
				OFFSET -0.002265 0.056032 0.002855
				CHANNELS 3 Zrotation Yrotation Xrotation
				JOINT lowerneck
				{
					OFFSET -0.013390 0.211636 -0.033468
					CHANNELS 3 Zrotation Yrotation Xrotation
					JOINT upperneck
					{
						OFFSET 0.010113 0.088937 0.050410
						CHANNELS 3 Zrotation Yrotation Xrotation
						End Site
						{
							OFFSET 0.000000 0.000000 0.000000
						}
					}
				}
				JOINT lclavicle
				{
					OFFSET 0.071702 0.114000 -0.018898
					CHANNELS 3 Zrotation Yrotation Xrotation
					JOINT lshoulder
					{
						OFFSET 0.122921 0.045205 -0.019046
						CHANNELS 3 Zrotation Yrotation Xrotation
						JOINT lelbow
						{
							OFFSET 0.255332 -0.015649 -0.022946
							CHANNELS 3 Zrotation Yrotation Xrotation
							JOINT lwrist
							{
								OFFSET 0.265709 0.012698 -0.007375
								CHANNELS 3 Zrotation Yrotation Xrotation
								End Site
								{
									OFFSET 0.000000 0.000000 0.000000
								}
							}
						}
					}
				}
				JOINT rclavicle
				{
					OFFSET -0.082954 0.112472 -0.023707
					CHANNELS 3 Zrotation Yrotation Xrotation
					JOINT rshoulder
					{
						OFFSET -0.113228 0.046853 -0.008472
						CHANNELS 3 Zrotation Yrotation Xrotation
						JOINT relbow
						{
							OFFSET -0.260127 -0.014369 -0.031269
							CHANNELS 3 Zrotation Yrotation Xrotation
							JOINT rwrist
							{
								OFFSET -0.269108 0.006794 -0.006027
								CHANNELS 3 Zrotation Yrotation Xrotation
								End Site
								{
									OFFSET 0.000000 0.000000 0.000000
								}
							}
						}
					}
				}
			}
		}
	}
}
MOTION
Frames: 7
Frame Time: 0.033333
0.010213 0.672732 0.889982 87.737175 -1.576781 71.284546 9.517229 2.887661 -2.228696 -8.555975 -2.158323 46.362920 3.120853 14.907453 -32.681133 0.000000 -0.000000 0.000000 -9.056688 -5.158181 -4.125262 2.106844 -1.093788 50.486318 1.689266 -15.224656 -32.788446 0.000000 -0.000000 0.000000 -2.398937 2.934608 8.916102 2.165388 -4.887951 4.822755 0.041717 0.894029 -1.082838 1.541313 -13.376753 -1.848972 2.844746 -22.231794 -0.120586 2.791695 -32.771296 -10.058701 -15.326742 -30.480680 -5.545528 13.795133 -31.287150 -1.585392 -5.097875 -8.098331 -3.641679 1.363563 36.063392 -9.687134 17.889373 36.235872 -9.118767 -16.812931 23.865982 2.114515 17.370198 2.942790 10.724151 
0.010471 0.672709 0.889710 87.672780 -1.605666 71.363083 9.492204 2.870979 -2.345421 -8.507752 -2.025186 46.486921 3.163613 14.870988 -32.735401 0.000000 -0.000000 0.000000 -9.087952 -5.148393 -4.264478 2.077452 -1.106319 50.617483 1.635969 -15.156673 -32.794647 0.000000 -0.000000 0.000000 -2.416738 2.906714 8.851207 2.169594 -4.867243 4.777573 0.008564 0.878154 -1.086491 1.621805 -13.417006 -1.757441 2.776533 -22.220659 0.022683 2.691021 -32.652577 -10.010588 -15.273238 -30.474535 -5.548493 13.964847 -31.719630 -1.553906 -5.473729 -8.249754 -3.661684 1.428514 36.061123 -9.628934 17.945383 36.401006 -9.060479 -16.917611 23.940804 2.240459 17.727150 2.832743 10.664898 
0.011012 0.672682 0.889247 87.559938 -1.643090 71.347463 9.473112 2.867641 -2.315849 -8.471924 -1.943299 46.612880 3.125084 14.895106 -32.867737 0.000000 -0.000000 0.000000 -9.094228 -5.067179 -4.280579 2.036047 -1.078497 50.733059 1.665671 -15.134470 -32.866503 0.000000 -0.000000 0.000000 -2.417306 2.911085 8.825336 2.156722 -4.809830 4.786881 -0.013379 0.900489 -1.019650 1.715989 -13.384617 -1.798699 2.722666 -22.255430 0.149337 2.623201 -32.562648 -10.028246 -15.287290 -30.467708 -5.519948 14.002814 -31.894262 -1.582995 -5.421919 -8.389841 -3.646930 1.454062 36.032570 -9.688800 18.019106 36.450499 -8.917981 -16.846503 24.003279 2.308503 17.679399 2.881231 10.612431 
0.011676 0.672608 0.888818 87.571713 -1.643135 71.268010 9.492775 2.892239 -2.255436 -8.497056 -1.943523 46.748192 3.203926 14.922613 -32.960717 0.000000 -0.000000 0.000000 -9.100580 -5.175792 -4.213458 2.048599 -0.976311 50.865055 1.630481 -15.177257 -32.975230 0.000000 -0.000000 0.000000 -2.398944 2.906735 8.822958 2.161292 -4.809047 4.795165 -0.039917 0.915800 -1.066775 1.702703 -13.430579 -1.670184 2.616455 -22.274845 0.455742 2.446699 -32.548700 -9.832153 -15.366879 -30.417975 -5.413244 13.873061 -32.155908 -1.388586 -6.059532 -8.120725 -4.040636 1.679136 36.068790 -9.498916 17.981156 36.403753 -8.946901 -16.871222 23.941779 2.274135 17.909321 2.844164 10.727311 
0.012342 0.672526 0.888440 87.642792 -1.620011 71.177728 9.486585 2.862408 -2.224392 -8.454946 -1.953911 46.933736 3.134202 14.897094 -33.038091 0.000000 -0.000000 0.000000 -9.097404 -5.112176 -4.055912 2.032917 -1.034586 50.896762 1.590494 -15.251668 -33.087247 0.000000 -0.000000 0.000000 -2.386748 2.918950 8.696943 2.188182 -4.847333 4.987687 -0.042235 0.887775 -1.039049 1.723518 -13.417622 -1.625476 2.620950 -22.293258 0.538632 2.253952 -32.657043 -9.613567 -15.391441 -30.345929 -5.395018 13.919624 -31.879641 -1.352310 -5.658206 -8.380734 -3.641374 1.824349 36.113942 -9.372593 17.712926 36.321261 -9.143218 -16.613602 23.840289 2.463765 17.690914 2.999780 10.731301 
0.013008 0.672435 0.888065 87.710698 -1.643036 71.117346 9.431382 2.779287 -2.133469 -8.467563 -2.032938 46.919349 3.150726 14.940480 -33.037105 0.000000 -0.000000 0.000000 -9.149889 -4.961997 -3.906451 2.049812 -1.161223 50.889042 1.576674 -15.364059 -33.071969 0.000000 -0.000000 0.000000 -2.427148 2.908791 8.642522 2.183708 -4.857084 5.112067 -0.055117 0.886421 -1.001835 1.838904 -13.378397 -1.685086 2.639352 -22.304163 0.561054 2.099560 -32.709375 -9.501996 -15.435790 -30.274517 -5.390942 13.912531 -31.759429 -1.238805 -6.532435 -8.507532 -3.482969 1.951892 36.121153 -9.303758 17.683732 36.218455 -9.176828 -16.830994 23.812393 2.366824 18.429001 2.932837 10.873194 
0.013339 0.672350 0.887898 87.753630 -1.620175 71.165262 9.426348 2.750911 -2.225991 -8.484982 -2.080888 47.028014 3.153485 15.039810 -33.060143 0.000000 -0.000000 0.000000 -9.126915 -4.908525 -3.938972 2.063324 -1.230186 50.923096 1.580687 -15.420885 -33.123314 0.000000 -0.000000 0.000000 -2.387913 2.867733 8.615520 2.186065 -4.824709 5.054013 -0.046261 0.899079 -1.004754 1.822043 -13.401910 -1.589487 2.669415 -22.177796 0.571906 1.928577 -32.680453 -9.387834 -15.766273 -30.194043 -5.173774 13.966650 -31.886637 -1.233818 -6.305597 -8.157657 -3.655885 2.048739 36.093677 -9.194141 17.675112 36.092789 -9.190150 -16.904732 23.860410 2.376200 18.261285 2.868584 10.865823 
